PathFileType	4	(X/Y/Z)	D:\TRACE\v60_Jaco2_6-2-23\JustBodyDRS_Motion3_8-platform.trc
DataRate	CameraRate	NumFrames	NumMarkers	Units	OrigDataRate	OrigDataStartFrame	OrigNumFrames
100.00	100.00	      30	5	mm	100.00	4376	      7000
Frame#	Time	Left_Front			Right_Front			Left_Aft			Right_Aft			Post			
		X1	Y1	Z1	X2	Y2	Z2	X3	Y3	Z3	X4	Y4	Z4	X5	Y5	Z5	

4376	43.750	-756.77325	-28.26504	-658.56921	814.28217	-29.89497	-636.22186	-688.13959	36.81686	473.39581	727.00055	39.33087	578.93451	39.93676	1248.88159	-1045.58228	
4377	43.760	-756.96527	-27.45755	-658.64087	814.12042	-29.17566	-636.03845	-688.39539	36.04890	473.69339	727.47052	39.09123	579.21051	39.53094	1250.07458	-1044.13062	
4378	43.770	-756.92786	-27.16083	-658.48663	814.01666	-28.32624	-635.85449	-688.30963	35.26934	474.19095	726.74249	38.26343	579.34711	39.64158	1251.41370	-1042.15369	
4379	43.780	-757.14502	-25.95502	-658.01721	813.80103	-27.46987	-635.67773	-688.41327	34.67274	474.36743	726.55701	37.45979	579.68829	39.30507	1252.95117	-1040.60571	
4380	43.790	-757.10150	-25.27272	-657.87616	813.17822	-26.42989	-635.25415	-688.62616	34.01844	474.63019	726.45111	36.84475	579.84479	39.28278	1254.03247	-1038.74292	
4381	43.800	-757.16608	-24.57020	-657.79614	813.05945	-25.61990	-635.08777	-688.88446	33.63265	474.72913	726.02899	36.07545	580.03271	38.71582	1255.54480	-1036.79309	
4382	43.810	-757.63245	-23.25877	-657.46094	812.90314	-24.84943	-634.93951	-689.15350	33.14420	475.07462	725.72797	35.36839	580.28107	38.77740	1256.68359	-1034.56299	
4383	43.820	-757.73230	-22.71267	-657.35181	812.69421	-23.95789	-634.51556	-689.23169	32.45715	475.33002	725.78717	34.92356	580.55359	38.37357	1258.06592	-1032.80383	
4384	43.830	-757.95258	-21.90068	-657.46161	812.45184	-23.23062	-634.61163	-689.32312	31.72521	475.55624	725.39453	34.20203	580.75659	38.52841	1259.39648	-1030.77063	
4385	43.840	-758.17200	-20.77942	-657.21234	812.19513	-22.06786	-634.59857	-689.49133	31.21365	475.64185	725.16315	33.31120	580.99957	37.87042	1261.04907	-1029.11438	
4386	43.850	-758.74121	-19.63200	-657.10541	811.97668	-21.20732	-634.31659	-689.83911	30.62912	475.83640	725.14447	32.75734	581.28558	37.86101	1262.35510	-1027.10632	
4387	43.860	-759.31177	-18.87724	-656.83386	811.73517	-20.37500	-634.03741	-690.23444	30.16838	476.03482	724.44775	31.46416	580.97443	37.48262	1263.68750	-1025.49670	
4388	43.870	-759.34149	-17.80499	-656.69421	811.47076	-19.59417	-633.88403	-690.51581	29.38140	476.51221	724.31281	30.81524	581.25903	36.96843	1265.47327	-1023.52557	
4389	43.880	-759.47650	-17.13572	-656.41870	811.07300	-18.55039	-633.70306	-690.72827	28.74711	476.86255	723.96143	30.01094	581.35022	36.95137	1266.64282	-1021.60425	
4390	43.890	-759.67554	-15.97226	-656.44299	811.06482	-17.48700	-633.46417	-691.04791	28.31206	477.05750	723.74335	29.33876	581.86456	36.63885	1268.37109	-1019.60663	
4391	43.900	-759.62823	-14.92762	-656.01355	810.59052	-16.48061	-633.28387	-691.43524	27.41326	477.31912	723.61548	28.75838	582.49463	36.42982	1269.71765	-1017.76862	
4392	43.910	-760.09882	-14.03171	-655.70898	810.34717	-15.50845	-633.13824	-691.88141	27.33834	477.22223	723.32849	28.08095	582.77600	35.82115	1271.29736	-1015.85114	
4393	43.920	-760.72144	-13.13541	-655.53601	810.00494	-14.50732	-632.81860	-692.18921	26.50355	477.57373	722.87506	27.29640	583.05975	35.61053	1272.99634	-1013.58466	
4394	43.930	-761.12714	-12.09538	-655.54602	809.63947	-13.53454	-632.69043	-692.41718	25.74647	477.88214	722.62970	26.32292	583.35345	35.32161	1274.23315	-1011.23932	
4395	43.940	-761.47021	-10.78662	-655.37372	809.35535	-12.55679	-632.43353	-692.74872	25.19685	478.08817	722.54205	25.77582	583.57831	34.74616	1275.84814	-1009.04962	
4396	43.950	-761.57617	-10.00503	-655.40900	809.18445	-11.51295	-632.24805	-692.96136	24.37110	478.22400	722.28577	24.96595	583.90216	34.78719	1277.51147	-1006.60315	
4397	43.960	-761.80408	-9.02527	-654.76056	808.73248	-10.40402	-632.11127	-693.33606	23.52551	478.51489	721.74915	24.02872	584.19391	34.12491	1279.10889	-1004.40472	
4398	43.970	-762.16443	-7.87786	-654.59070	808.50598	-9.56798	-632.25250	-693.70367	22.85357	478.93872	721.06586	23.13024	584.39569	33.93221	1280.81335	-1001.90942	
4399	43.980	-762.53094	-6.83024	-654.56006	807.83423	-8.50023	-631.71320	-694.10742	22.21075	479.11569	720.19952	22.15209	584.47821	33.35734	1282.32202	-999.63165	
4400	43.990	-762.91235	-6.02962	-654.04913	807.76630	-7.48215	-631.40961	-694.33270	21.25995	479.58856	720.33368	21.55090	585.18335	32.62069	1283.64001	-997.16577	
4401	44.000	-763.51447	-5.10755	-653.66962	807.26868	-6.24589	-631.29553	-694.57550	20.54086	479.70795	719.68408	20.61787	585.24243	32.77186	1285.44678	-995.23102	
4402	44.010	-763.76141	-3.53670	-653.90509	807.01398	-5.25758	-631.06982	-695.17462	20.21768	480.11865	719.28754	19.77029	585.48499	32.23655	1287.01819	-993.17828	
4403	44.020	-764.12683	-2.32502	-653.68658	806.67029	-4.19859	-630.80029	-695.48627	19.53109	480.31400	719.14355	19.01254	586.04218	32.03036	1288.49036	-991.02869	
4404	44.030	-764.30438	-1.83686	-653.63055	806.20966	-3.35280	-630.61255	-695.83038	18.72513	480.60251	718.64404	18.04376	585.93542	31.32525	1290.00684	-989.11530	
4405	44.040	-764.73523	-1.10835	-653.32867	805.74188	-2.21129	-630.39569	-696.22345	17.98351	480.71283	718.39471	17.21460	586.29663	31.33268	1291.58508	-986.86084	
